<svg id="Capa_1" enable-background="new 0 0 512 512" height="512" viewBox="0 0 512 512" width="512" xmlns="http://www.w3.org/2000/svg"><g><path d="m301 181h-45-45l-30 45v45l13.975 15 16.025-15h45 45l14.764 15 15.236-15v-45z" fill="#ffea80"/><path d="m315.764 286 15.236-15v-45l-30-45h-45v90h45z" fill="#ffc34d"/><path d="m256 61h-15v60h15 15v-60z" fill="#ffea80"/><path d="m256 61h15v60h-15z" fill="#ffc34d"/><path d="m391 271h-45-45l-30 45v45l13.5 15 16.5-15h45 45l11.448 15 18.552-15v-45z" fill="#ffea80"/><path d="m402.448 376 18.552-15v-45l-30-45h-45v90h45z" fill="#ffc34d"/><path d="m211 271h-45-45l-30 45v45l13.737 15 16.263-15h45 45l15.236 15 14.764-15v-45z" fill="#ffea80"/><path d="m226.236 376 14.764-15v-45l-30-45h-45v90h45z" fill="#ffc34d"/><g fill="#ffea80"><path d="m76 361h-46l-30 45v45h76 75v-45l-30-45z"/><path d="m256 361h-45l-30 45v45h75 75v-45l-30-45z"/><path d="m482 361h-46-15-30l-30 45v45h75 76v-45z"/></g><path d="m151 406-30-45h-45v90h75z" fill="#ffc34d"/><path d="m331 406-30-45h-45v90h75z" fill="#ffc34d"/><path d="m512 406-30-45h-46v90h76z" fill="#ffc34d"/><g><path d="m385.1 141.905h59.994v29.997h-59.994z" fill="#ffc34d" transform="matrix(.707 -.707 .707 .707 10.632 339.474)"/></g><g><path d="m81.905 126.907h29.997v59.994h-29.997z" fill="#ffea80" transform="matrix(.707 -.707 .707 .707 -82.565 114.477)"/></g></g></svg>