<svg height="480pt" viewBox="0 0 480 480.00012" width="480pt" xmlns="http://www.w3.org/2000/svg"><path d="m424 432c0 8.835938-7.164062 16-16 16s-16-7.164062-16-16 7.164062-16 16-16 16 7.164062 16 16zm0 0"/><path d="m467.199219 251.199219-11.199219-7.4375v-107.761719c-.054688-43.753906-32.203125-80.839844-75.503906-87.113281l18.703125-37.3125c1.242187-2.484375 1.105469-5.4375-.363281-7.800781-1.46875-2.359376-4.054688-3.789063-6.835938-3.773438h-96c-2.78125-.015625-5.367188 1.414062-6.835938 3.773438-1.46875 2.363281-1.605468 5.316406-.363281 7.800781l18.664063 37.3125c-43.285156 6.289062-75.410156 43.375-75.464844 87.113281v107.71875l-11.160156 7.441406c-8.039063 5.351563-12.863282 14.378906-12.839844 24.039063.035156 4.457031 1.113281 8.839843 3.152344 12.800781h-35.152344v-136h40v-16h-44.929688l-62.222656-56h112.304688l7.574218 6.191406 10.121094-12.382812-9.785156-8c-1.425781-1.167969-3.214844-1.808594-5.0625-1.808594h-136.0625c-.871094.015625-1.734375.171875-2.554688.464844-.253906.085937-.480468.238281-.726562.351562-.585938.269532-1.136719.609375-1.640625 1.007813-.113281.089843-.253906.121093-.367187.222656l-80 72c-1.6875 1.519531-2.648438 3.683594-2.648438 5.953125v152c.046875 31.730469 20.832031 59.703125 51.199219 68.902344-7.125 6.441406-11.195313 15.597656-11.199219 25.203125v1.734375c-.050781 12.953125 7.269531 24.804687 18.871094 30.558594l93.28125 46.632812c14.449218 7.199219 30.367187 10.953125 46.511718 10.96875h273.335938c4.417969 0 8-3.582031 8-8v-112c0-4.417969-3.582031-8-8-8h-18.847656c16.96875-13.636719 26.84375-34.230469 26.847656-56-.035156-2.753906-1.503906-5.285156-3.871094-6.6875 2.496094-4.285156 3.832032-9.152344 3.871094-14.113281.019531-9.636719-4.785156-18.644531-12.800781-24zm-243.199219 24c-.007812-4.296875 2.140625-8.308594 5.71875-10.6875l14.722656-9.816407c2.234375-1.492187 3.574219-4.007812 3.558594-6.695312v-112c.046875-39.746094 32.253906-71.953125 72-72 2.78125.015625 5.367188-1.414062 6.835938-3.773438 1.46875-2.363281 1.605468-5.316406.363281-7.800781l-18.253907-36.425781h70.109376l-18.214844 36.425781c-1.238282 2.480469-1.105469 5.425781.351562 7.78125 1.460938 2.359375 4.035156 3.792969 6.808594 3.792969 39.746094.046875 71.953125 32.253906 72 72v112c0 2.675781 1.335938 5.171875 3.558594 6.65625l14.722656 9.816406c4.703125 3.132813 6.808594 8.972656 5.179688 14.386719-1.628907 5.414063-6.609376 9.125-12.261719 9.140625h-214.359375c-7.070313-.007812-12.808594-5.726562-12.839844-12.800781zm-208-127.640625 72-64.796875 72 64.796875v140.441406h-40v-56c0-4.417969-3.582031-8-8-8h-48c-4.417969 0-8 3.582031-8 8v56h-40zm88 140.441406h-32v-48h32zm57.113281 104.382812-53.234375-24.382812h56.570313c-4.386719 7.335938-5.59375 16.140625-3.335938 24.382812zm-1.800781 62.320313-93.28125-46.632813c-6.164062-3.050781-10.058594-9.347656-10.03125-16.230468v-1.734375c-.019531-6.1875 3.121094-11.953125 8.324219-15.296875s11.753906-3.796875 17.371093-1.207032l90.96875 41.664063c1.046876.480469 2.183594.730469 3.335938.734375h80c4.417969 0 8-3.582031 8-8s-3.582031-8-8-8h-64c-8.835938 0-16-7.164062-16-16s7.164062-16 16-16h61.335938c1.335937 0 2.652343-.335938 3.824218-.976562l2.046875-1.109376c31.289063-17.226562 69.117188-17.660156 100.792969-1.160156v99.246094h-161.335938c-13.660156-.011719-27.128906-3.195312-39.351562-9.296875zm304.6875-86.703125v96h-88v-96zm-56-16h-38.023438c-36.828124-20.363281-81.523437-20.417969-118.402343-.144531l-59.574219.144531h-120c-27.824219-.035156-51.417969-20.464844-55.433594-48h446.867188c-4.015625 27.535156-27.609375 47.964844-55.433594 48zm0 0"/><path d="m356 168h-24c-6.628906 0-12-5.371094-12-12s5.371094-12 12-12h44v-16h-24v-16h-16v16h-4c-15.464844 0-28 12.535156-28 28s12.535156 28 28 28h24c6.628906 0 12 5.371094 12 12s-5.371094 12-12 12h-44v16h24v16h16v-16h4c15.464844 0 28-12.535156 28-28s-12.535156-28-28-28zm0 0"/><path d="m72 208h32c4.417969 0 8-3.582031 8-8v-40c0-4.417969-3.582031-8-8-8h-32c-4.417969 0-8 3.582031-8 8v40c0 4.417969 3.582031 8 8 8zm8-40h16v24h-16zm0 0"/></svg>